<svg width="61" height="70" fill="none" xmlns="http://www.w3.org/2000/svg"><path d="M59.5 0H12.834c-.645 0-1.167.522-1.167 1.167v11.666a5.84 5.84 0 005.833 5.834h4.667v3.5H21A1.167 1.167 0 0019.906 21L1.239 19.833A1.167 1.167 0 000 21v4.667c0 .644.523 1.166 1.167 1.166h.072l18.667-1.166A1.167 1.167 0 0021 24.5h1.167v2.333c0 .645.522 1.167 1.167 1.167h2.333v3.5c0 .644.522 1.167 1.167 1.167H28v1.166a1.167 1.167 0 002.334 0v-1.166H31.5c.645 0 1.167-.523 1.167-1.167V28H35c.645 0 1.167-.522 1.167-1.167v-8.166H42v32.666H30.334a5.84 5.84 0 005.833-5.833v-7c0-.644-.523-1.167-1.167-1.167H23.334c-.645 0-1.167.523-1.167 1.167v1.167H21A1.167 1.167 0 0021 42h1.167v3.5A5.84 5.84 0 0028 51.333h-9.333a5.84 5.84 0 00-5.833 5.834v11.666c0 .645.522 1.167 1.166 1.167h45.5c.645 0 1.167-.522 1.167-1.167V1.167C60.667.522 60.144 0 59.5 0zM18.667 23.404L2.334 24.425v-2.184l16.333 1.021v.142zM24.5 45.5v-5.833h9.334V45.5a3.5 3.5 0 01-3.5 3.5H28a3.5 3.5 0 01-3.5-3.5zM42 67.667H15.167v-10.5a3.5 3.5 0 013.5-3.5H42v14zM30.334 30.333H28V28h2.334v2.333zm3.5-4.666H24.5v-7h9.334v7zm24.5 42h-14V17.5c0-.644-.523-1.167-1.167-1.167H17.5a3.5 3.5 0 01-3.5-3.5v-10.5h44.334v65.334z" fill="#fff"/></svg>